<mxfile host="app.diagrams.net" modified="2021-11-04T01:25:40.086Z" agent="5.0 (Windows NT 10.0; Win64; x64) AppleWebKit/537.36 (KHTML, like Gecko) Chrome/94.0.4606.81 Safari/537.36" etag="jKvKrQk5XvwGaaH14sC_" version="15.6.6" type="github">
  <diagram id="C5RBs43oDa-KdzZeNtuy" name="Page-1">
    <mxGraphModel dx="1422" dy="794" grid="1" gridSize="10" guides="1" tooltips="1" connect="1" arrows="1" fold="1" page="1" pageScale="1" pageWidth="827" pageHeight="1169" math="0" shadow="0">
      <root>
        <mxCell id="WIyWlLk6GJQsqaUBKTNV-0" />
        <mxCell id="WIyWlLk6GJQsqaUBKTNV-1" parent="WIyWlLk6GJQsqaUBKTNV-0" />
        <mxCell id="rln7QxH3AYazvcpurLlf-28" style="edgeStyle=orthogonalEdgeStyle;rounded=0;orthogonalLoop=1;jettySize=auto;html=1;exitX=0.5;exitY=1;exitDx=0;exitDy=0;labelBackgroundColor=default;fontSize=15;fontColor=default;strokeColor=default;" edge="1" parent="WIyWlLk6GJQsqaUBKTNV-1" source="rln7QxH3AYazvcpurLlf-2" target="rln7QxH3AYazvcpurLlf-22">
          <mxGeometry relative="1" as="geometry" />
        </mxCell>
        <mxCell id="rln7QxH3AYazvcpurLlf-2" value="" style="swimlane;startSize=0;fontColor=default;strokeColor=default;fillColor=default;" vertex="1" parent="WIyWlLk6GJQsqaUBKTNV-1">
          <mxGeometry x="280" y="390" width="180" height="80" as="geometry" />
        </mxCell>
        <mxCell id="rln7QxH3AYazvcpurLlf-3" value="任务调度器" style="text;html=1;align=center;verticalAlign=middle;resizable=0;points=[];autosize=1;strokeColor=none;fillColor=none;fontColor=default;fontSize=18;" vertex="1" parent="rln7QxH3AYazvcpurLlf-2">
          <mxGeometry x="35" y="25" width="110" height="30" as="geometry" />
        </mxCell>
        <mxCell id="rln7QxH3AYazvcpurLlf-27" style="edgeStyle=orthogonalEdgeStyle;rounded=0;orthogonalLoop=1;jettySize=auto;html=1;exitX=0.5;exitY=1;exitDx=0;exitDy=0;entryX=0.5;entryY=0;entryDx=0;entryDy=0;labelBackgroundColor=default;fontSize=15;fontColor=default;strokeColor=default;" edge="1" parent="WIyWlLk6GJQsqaUBKTNV-1" source="rln7QxH3AYazvcpurLlf-10" target="rln7QxH3AYazvcpurLlf-2">
          <mxGeometry relative="1" as="geometry" />
        </mxCell>
        <mxCell id="rln7QxH3AYazvcpurLlf-10" value="" style="swimlane;startSize=0;fontColor=default;strokeColor=default;fillColor=default;" vertex="1" parent="WIyWlLk6GJQsqaUBKTNV-1">
          <mxGeometry x="280" y="280" width="180" height="80" as="geometry" />
        </mxCell>
        <mxCell id="rln7QxH3AYazvcpurLlf-11" value="事件反应器" style="text;html=1;align=center;verticalAlign=middle;resizable=0;points=[];autosize=1;strokeColor=none;fillColor=none;fontColor=default;fontSize=18;" vertex="1" parent="rln7QxH3AYazvcpurLlf-10">
          <mxGeometry x="35" y="25" width="110" height="30" as="geometry" />
        </mxCell>
        <mxCell id="rln7QxH3AYazvcpurLlf-24" style="edgeStyle=orthogonalEdgeStyle;rounded=0;orthogonalLoop=1;jettySize=auto;html=1;exitX=0.5;exitY=1;exitDx=0;exitDy=0;fontSize=15;fontColor=default;strokeColor=default;labelBackgroundColor=default;" edge="1" parent="WIyWlLk6GJQsqaUBKTNV-1" source="rln7QxH3AYazvcpurLlf-14" target="rln7QxH3AYazvcpurLlf-10">
          <mxGeometry relative="1" as="geometry" />
        </mxCell>
        <mxCell id="rln7QxH3AYazvcpurLlf-14" value="预警事件" style="rounded=1;whiteSpace=wrap;html=1;fontSize=15;fontColor=default;strokeColor=default;fillColor=default;labelPosition=center;verticalLabelPosition=bottom;align=center;verticalAlign=top;" vertex="1" parent="WIyWlLk6GJQsqaUBKTNV-1">
          <mxGeometry x="110" y="130" width="250" height="80" as="geometry" />
        </mxCell>
        <mxCell id="rln7QxH3AYazvcpurLlf-15" value="人工预警" style="ellipse;whiteSpace=wrap;html=1;fontSize=15;fontColor=default;strokeColor=default;fillColor=default;" vertex="1" parent="WIyWlLk6GJQsqaUBKTNV-1">
          <mxGeometry x="130" y="140" width="100" height="60" as="geometry" />
        </mxCell>
        <mxCell id="rln7QxH3AYazvcpurLlf-16" value="系统预警" style="ellipse;whiteSpace=wrap;html=1;fontSize=15;fontColor=default;strokeColor=default;fillColor=default;" vertex="1" parent="WIyWlLk6GJQsqaUBKTNV-1">
          <mxGeometry x="240" y="140" width="100" height="60" as="geometry" />
        </mxCell>
        <mxCell id="rln7QxH3AYazvcpurLlf-25" style="edgeStyle=orthogonalEdgeStyle;rounded=0;orthogonalLoop=1;jettySize=auto;html=1;exitX=0.5;exitY=1;exitDx=0;exitDy=0;entryX=0.5;entryY=0;entryDx=0;entryDy=0;fontSize=15;fontColor=default;strokeColor=default;labelBackgroundColor=default;" edge="1" parent="WIyWlLk6GJQsqaUBKTNV-1" source="rln7QxH3AYazvcpurLlf-17" target="rln7QxH3AYazvcpurLlf-10">
          <mxGeometry relative="1" as="geometry" />
        </mxCell>
        <mxCell id="rln7QxH3AYazvcpurLlf-17" value="处置事件" style="rounded=1;whiteSpace=wrap;html=1;fontSize=15;fontColor=default;strokeColor=default;fillColor=default;labelPosition=center;verticalLabelPosition=bottom;align=center;verticalAlign=top;" vertex="1" parent="WIyWlLk6GJQsqaUBKTNV-1">
          <mxGeometry x="400" y="130" width="240" height="80" as="geometry" />
        </mxCell>
        <mxCell id="rln7QxH3AYazvcpurLlf-18" value="预警处置" style="ellipse;whiteSpace=wrap;html=1;fontSize=15;fontColor=default;strokeColor=default;fillColor=default;" vertex="1" parent="WIyWlLk6GJQsqaUBKTNV-1">
          <mxGeometry x="410" y="140" width="100" height="60" as="geometry" />
        </mxCell>
        <mxCell id="rln7QxH3AYazvcpurLlf-35" style="edgeStyle=orthogonalEdgeStyle;rounded=0;orthogonalLoop=1;jettySize=auto;html=1;exitX=0.5;exitY=1;exitDx=0;exitDy=0;entryX=0.5;entryY=0;entryDx=0;entryDy=0;labelBackgroundColor=default;fontSize=15;fontColor=default;strokeColor=default;" edge="1" parent="WIyWlLk6GJQsqaUBKTNV-1" source="rln7QxH3AYazvcpurLlf-22" target="rln7QxH3AYazvcpurLlf-32">
          <mxGeometry relative="1" as="geometry" />
        </mxCell>
        <mxCell id="rln7QxH3AYazvcpurLlf-22" value="" style="swimlane;startSize=0;fontColor=default;strokeColor=default;fillColor=default;" vertex="1" parent="WIyWlLk6GJQsqaUBKTNV-1">
          <mxGeometry x="280" y="500" width="180" height="80" as="geometry" />
        </mxCell>
        <mxCell id="rln7QxH3AYazvcpurLlf-23" value="任务执行器" style="text;html=1;align=center;verticalAlign=middle;resizable=0;points=[];autosize=1;strokeColor=none;fillColor=none;fontColor=default;fontSize=18;" vertex="1" parent="rln7QxH3AYazvcpurLlf-22">
          <mxGeometry x="35" y="25" width="110" height="30" as="geometry" />
        </mxCell>
        <mxCell id="rln7QxH3AYazvcpurLlf-30" style="edgeStyle=orthogonalEdgeStyle;rounded=0;orthogonalLoop=1;jettySize=auto;html=1;exitX=0;exitY=0.5;exitDx=0;exitDy=0;entryX=1;entryY=0.5;entryDx=0;entryDy=0;labelBackgroundColor=default;fontSize=15;fontColor=default;strokeColor=default;" edge="1" parent="WIyWlLk6GJQsqaUBKTNV-1" source="rln7QxH3AYazvcpurLlf-29" target="rln7QxH3AYazvcpurLlf-2">
          <mxGeometry relative="1" as="geometry" />
        </mxCell>
        <mxCell id="rln7QxH3AYazvcpurLlf-29" value="定时器" style="ellipse;whiteSpace=wrap;html=1;aspect=fixed;fontSize=15;fontColor=default;strokeColor=default;fillColor=default;" vertex="1" parent="WIyWlLk6GJQsqaUBKTNV-1">
          <mxGeometry x="510" y="390" width="80" height="80" as="geometry" />
        </mxCell>
        <mxCell id="rln7QxH3AYazvcpurLlf-31" value="预警研判" style="ellipse;whiteSpace=wrap;html=1;fontSize=15;fontColor=default;strokeColor=default;fillColor=default;" vertex="1" parent="WIyWlLk6GJQsqaUBKTNV-1">
          <mxGeometry x="530" y="140" width="100" height="60" as="geometry" />
        </mxCell>
        <mxCell id="rln7QxH3AYazvcpurLlf-32" value="预警触达" style="rounded=1;whiteSpace=wrap;html=1;fontSize=15;fontColor=default;strokeColor=default;fillColor=default;labelPosition=center;verticalLabelPosition=bottom;align=center;verticalAlign=top;" vertex="1" parent="WIyWlLk6GJQsqaUBKTNV-1">
          <mxGeometry x="245" y="610" width="250" height="80" as="geometry" />
        </mxCell>
        <mxCell id="rln7QxH3AYazvcpurLlf-33" value="短信发送" style="ellipse;whiteSpace=wrap;html=1;fontSize=15;fontColor=default;strokeColor=default;fillColor=default;" vertex="1" parent="WIyWlLk6GJQsqaUBKTNV-1">
          <mxGeometry x="260" y="620" width="100" height="60" as="geometry" />
        </mxCell>
        <mxCell id="rln7QxH3AYazvcpurLlf-34" value="语音外呼" style="ellipse;whiteSpace=wrap;html=1;fontSize=15;fontColor=default;strokeColor=default;fillColor=default;" vertex="1" parent="WIyWlLk6GJQsqaUBKTNV-1">
          <mxGeometry x="380" y="620" width="100" height="60" as="geometry" />
        </mxCell>
      </root>
    </mxGraphModel>
  </diagram>
</mxfile>
